<svg xmlns="http://www.w3.org/2000/svg" width="22.32" height="22.32" viewBox="0 0 22.32 22.32">
  <g id="Icon_awesome-coins" data-name="Icon awesome-coins" transform="translate(0.5 0.5)">
    <path id="Icon_awesome-coins-2" data-name="Icon awesome-coins" d="M0,16.877v1.778c0,1.47,3.581,2.665,8,2.665s8-1.2,8-2.665V16.877c-1.72,1.212-4.864,1.778-8,1.778S1.72,18.089,0,16.877ZM13.325,5.33c4.414,0,8-1.2,8-2.665S17.739,0,13.325,0s-8,1.2-8,2.665S8.911,5.33,13.325,5.33ZM0,12.509v2.149c0,1.47,3.581,2.665,8,2.665s8-1.2,8-2.665V12.509c-1.72,1.416-4.868,2.149-8,2.149S1.72,13.925,0,12.509Zm17.323.458c2.386-.462,4-1.32,4-2.307V8.882a10.226,10.226,0,0,1-4,1.437ZM8,6.663c-4.414,0-8,1.491-8,3.331s3.581,3.331,8,3.331,8-1.491,8-3.331S12.409,6.663,8,6.663Zm9.132,2.344c2.5-.45,4.193-1.333,4.193-2.344V4.885C19.842,5.93,17.3,6.492,14.629,6.625A4.663,4.663,0,0,1,17.127,9.007Z" fill="none" stroke="#710193" stroke-width="1"/>
  </g>
</svg>
