<svg xmlns="http://www.w3.org/2000/svg" viewBox="0 0 188.29 116.06"><defs><style>.cls-1{fill:#464646;}.cls-2{fill:#6e2b8b;}</style></defs><title>boomerang</title><g id="Layer_2" data-name="Layer 2"><g id="Layer_1-2" data-name="Layer 1"><path class="cls-1" d="M0,94.87a3.43,3.43,0,0,1,1-2.51,3.4,3.4,0,0,1,2.5-1h3A5.32,5.32,0,0,1,10.43,93,5.32,5.32,0,0,1,12,96.84a4.86,4.86,0,0,1-1.61,3.94,5.09,5.09,0,0,1,1.9,4.32,5.6,5.6,0,0,1-1.7,4.1,5.6,5.6,0,0,1-4.11,1.71h-3a3.41,3.41,0,0,1-2.5-1,3.44,3.44,0,0,1-1-2.5ZM3.07,99.3H6.52A2.41,2.41,0,0,0,9,96.84a2.32,2.32,0,0,0-.71-1.72,2.37,2.37,0,0,0-1.74-.73h-3a.46.46,0,0,0-.34.14.45.45,0,0,0-.13.34Zm3.45,8.54a2.7,2.7,0,0,0,2.73-2.74,2.71,2.71,0,0,0-2.73-2.74H3.07v5a.45.45,0,0,0,.13.34.49.49,0,0,0,.34.13Z"/><path class="cls-1" d="M21.3,96.47a7.22,7.22,0,1,1-5.1,12.32,7.22,7.22,0,0,1,5.1-12.32Zm0,3.09a4.16,4.16,0,1,0,2.94,7.1,4.16,4.16,0,0,0-2.94-7.1Z"/><path class="cls-1" d="M37.5,96.47a7.22,7.22,0,1,1-5.11,2.12A7,7,0,0,1,37.5,96.47Zm0,3.09a4.15,4.15,0,1,0,2.93,1.22A4,4,0,0,0,37.5,99.56Z"/><path class="cls-1" d="M49.91,109.39a1.42,1.42,0,0,1-.45,1.07,1.44,1.44,0,0,1-1.06.45h0a1.48,1.48,0,0,1-1.07-.45,1.42,1.42,0,0,1-.45-1.07V102.5a6,6,0,0,1,6-6,5.31,5.31,0,0,1,4.5,2,5.28,5.28,0,0,1,4.49-2,6,6,0,0,1,6,6v6.89a1.52,1.52,0,0,1-1.51,1.52h0a1.4,1.4,0,0,1-1.06-.45,1.42,1.42,0,0,1-.45-1.07V102.5a3,3,0,0,0-3-3,3,3,0,0,0-3,3v6.89a1.54,1.54,0,0,1-1.52,1.52h0a1.47,1.47,0,0,1-1.08-.45,1.42,1.42,0,0,1-.45-1.07V102.5a3,3,0,0,0-5.92,0Z"/><path class="cls-1" d="M83.79,100.68a1.46,1.46,0,0,1,.15.64,1.66,1.66,0,0,1-.1.53,1.44,1.44,0,0,1-.81.85l-4.61,2.08-4.16,1.89a3.57,3.57,0,0,0,3,1.2,4.16,4.16,0,0,0,3.92-2.79,1.42,1.42,0,0,1,1.46-1,1.56,1.56,0,0,1,1.53,1.49,1.71,1.71,0,0,1-.1.54,7.23,7.23,0,1,1-2.87-8.43A7,7,0,0,1,83.79,100.68Zm-6.56-1.12a4.15,4.15,0,0,0-4.15,4.17v.08l7-3.14A3.52,3.52,0,0,0,77.23,99.56Z"/><path class="cls-1" d="M92.63,96.47a1.47,1.47,0,0,1,1.08.45A1.5,1.5,0,0,1,94.15,98v0a1.52,1.52,0,0,1-1.52,1.52h-.71a2.38,2.38,0,0,0-1.74.71,2.46,2.46,0,0,0-.72,1.75v7.39a1.42,1.42,0,0,1-.45,1.07,1.44,1.44,0,0,1-1.06.45h0a1.48,1.48,0,0,1-1.07-.45,1.42,1.42,0,0,1-.45-1.07V102A5.51,5.51,0,0,1,88,98.08a5.35,5.35,0,0,1,3.91-1.61Z"/><path class="cls-1" d="M107.85,98.59a7,7,0,0,1,2.12,5.1v5.7a1.39,1.39,0,0,1-.46,1.07,1.44,1.44,0,0,1-1.06.45h0a1.44,1.44,0,0,1-1.06-.45,1.42,1.42,0,0,1-.45-1.07,5.45,5.45,0,0,1-4.15,1.52,7.22,7.22,0,1,1,5.1-12.32Zm-8,2.16a4.15,4.15,0,0,0,3,7.09,4,4,0,0,0,2.93-1.21,4.16,4.16,0,0,0-5.88-5.88Z"/><path class="cls-1" d="M115.54,109.39a1.42,1.42,0,0,1-.45,1.07,1.44,1.44,0,0,1-1.06.45h0a1.47,1.47,0,0,1-1.07-.45,1.42,1.42,0,0,1-.45-1.07v-6.86a6.06,6.06,0,0,1,12.12,0v6.86a1.42,1.42,0,0,1-.45,1.07,1.4,1.4,0,0,1-1.07.45h0a1.47,1.47,0,0,1-1.08-.45,1.42,1.42,0,0,1-.45-1.07v-6.86a2.91,2.91,0,0,0-.86-2.11,3,3,0,0,0-5.12,2.11Z"/><path class="cls-1" d="M133.94,113a4,4,0,0,0,2.83-1.23,3.9,3.9,0,0,0,1.32-2.92,4.74,4.74,0,0,1-4.15,2.07,7.22,7.22,0,1,1,7.22-7.25v5.18a6.86,6.86,0,0,1-2.27,5.11,6.94,6.94,0,0,1-4.95,2.11,7,7,0,0,1-6.33-3.29,1.42,1.42,0,0,1-.25-.8,1.51,1.51,0,0,1,.09-.5,1.43,1.43,0,0,1,.92-1h0a1.69,1.69,0,0,1,.6-.12,1.4,1.4,0,0,1,1.18.71A4.19,4.19,0,0,0,133.94,113Zm4.15-9.38a4,4,0,0,0-1.24-2.88,4.16,4.16,0,1,0-2.91,7.11,4,4,0,0,0,2.93-1.21,4,4,0,0,0,1.22-2.94Z"/><path class="cls-2" d="M146.86,104.64v4.75a1.42,1.42,0,0,1-.45,1.07,1.47,1.47,0,0,1-1.07.45h0a1.46,1.46,0,0,1-1.06-.45,1.42,1.42,0,0,1-.45-1.07V98a6.66,6.66,0,1,1,13.31,0,6.69,6.69,0,0,1-6.66,6.65Zm0-3.07h3.58A3.6,3.6,0,1,0,146.86,98Z"/><path class="cls-2" d="M171.55,98.59a7,7,0,0,1,2.11,5.1v5.7a1.42,1.42,0,0,1-.45,1.07,1.44,1.44,0,0,1-1.06.45h0a1.44,1.44,0,0,1-1.06-.45,1.39,1.39,0,0,1-.46-1.07,5.41,5.41,0,0,1-4.14,1.52,7.22,7.22,0,1,1,5.1-12.32Zm-8.05,2.16a4.15,4.15,0,0,0,2.95,7.09,4.13,4.13,0,0,0,4.14-4.15,4.16,4.16,0,0,0-7.09-2.94Z"/><path class="cls-2" d="M179.24,104.58a3,3,0,0,0,3,3,2.88,2.88,0,0,0,2.11-.87,2.93,2.93,0,0,0,.88-2.12V98a1.54,1.54,0,0,1,1.53-1.53h0a1.42,1.42,0,0,1,1.07.45,1.47,1.47,0,0,1,.45,1.08v12a6.24,6.24,0,0,1-6.06,6.07,6.51,6.51,0,0,1-3.42-.93,6,6,0,0,1-2.28-2.42,1.51,1.51,0,0,1-.17-.67,1.47,1.47,0,0,1,.12-.58,1.41,1.41,0,0,1,.88-.87l0,0a1.7,1.7,0,0,1,.54-.09,1.47,1.47,0,0,1,.54.1,1.52,1.52,0,0,1,.78.72,3,3,0,0,0,1.2,1.21,3.4,3.4,0,0,0,1.76.48,2.87,2.87,0,0,0,2.09-.88,2.91,2.91,0,0,0,.9-2.12v-.1a4.94,4.94,0,0,1-3,.74,6.08,6.08,0,0,1-6.06-6V98a1.54,1.54,0,0,1,1.52-1.53h0A1.54,1.54,0,0,1,179.24,98Z"/><path class="cls-2" d="M101.52,56.38s-3.72-3.74-9.27-9-7.62-7.65-9-10.75-3.41-7.43.57-17,9.7-16.34,6-19.24S77.25,13.51,77.25,13.51,68,26.76,72.76,38.31,93,58.28,93,58.28s7.55,4.52,8.72,2A3.5,3.5,0,0,0,101.52,56.38Z"/><path class="cls-2" d="M87.1,20.43s3.72,3.74,9.27,9,7.62,7.64,8.95,10.75,3.4,7.42-.57,17-9.7,16.34-6,19.24S111.37,63.3,111.37,63.3s9.22-13.25,4.49-24.8-20.28-20-20.28-20S88,14,86.86,16.48A3.51,3.51,0,0,0,87.1,20.43Z"/><circle class="cls-2" cx="93.97" cy="10.94" r="3.19"/><circle class="cls-2" cx="93.97" cy="65.04" r="3.19"/><path class="cls-1" d="M92.47,73.78a36.2,36.2,0,0,1-10.68-2c-.86-.32-1.7-.67-2.55-1l-2.43-1.25c-.83-.4-1.56-1-2.34-1.43-.38-.25-.78-.49-1.15-.75l-1.08-.85A34.84,34.84,0,0,1,60.11,48.65a38,38,0,0,1-1.31-10.8,34.24,34.24,0,0,1,2.08-10.62A33.24,33.24,0,0,1,74,10.79a.5.5,0,0,1,.6.81h0A34.76,34.76,0,0,0,63.67,28.16a32.59,32.59,0,0,0-1.38,9.74,35.85,35.85,0,0,0,1.49,9.66A33.17,33.17,0,0,0,74.69,63.38a33.7,33.7,0,0,0,18,7.12h0a1.64,1.64,0,0,1-.21,3.28Z"/><path class="cls-1" d="M97.15,3.15A34.16,34.16,0,0,1,108,5.63a32.31,32.31,0,0,1,9.52,5.88,34.56,34.56,0,0,1,11.15,19,35.84,35.84,0,0,1,.59,11.07,35,35,0,0,1-2.94,10.64,34.55,34.55,0,0,1-6.09,9.09A34.93,34.93,0,0,1,111.69,68a.5.5,0,0,1-.52-.86h0A35.36,35.36,0,0,0,119,60.19a34.55,34.55,0,0,0,5.3-8.86,33.23,33.23,0,0,0,1.41-20.13,30.58,30.58,0,0,0-3.94-9.32,33.87,33.87,0,0,0-6.56-7.66A34.15,34.15,0,0,0,96.9,6.31h0a1.59,1.59,0,0,1,.29-3.16Z"/></g></g></svg>