<svg xmlns="http://www.w3.org/2000/svg" viewBox="0 0 70.66 76.73"><defs><style>.cls-1{fill:#6e2b8b;}.cls-2{fill:#464646;}</style></defs><title>boom-icon</title><g id="Layer_2" data-name="Layer 2"><g id="Layer_1-2" data-name="Layer 1"><g id="Layer_2-2" data-name="Layer 2"><g id="Layer_1-2-2" data-name="Layer 1-2"><path class="cls-1" d="M42.73,56.34s-3.72-3.74-9.27-9-7.62-7.65-9-10.75-3.41-7.43.57-17S34.73,3.25,31,.35,18.46,13.47,18.46,13.47,9.21,26.72,14,38.27s20.24,20,20.24,20,7.55,4.52,8.72,2A3.51,3.51,0,0,0,42.73,56.34Z"/><path class="cls-1" d="M28.31,20.39s3.72,3.74,9.27,9,7.62,7.64,9,10.75,3.4,7.42-.57,17-9.7,16.34-6,19.24S52.58,63.26,52.58,63.26,61.8,50,57.07,38.46s-20.28-20-20.28-20-7.58-4.5-8.72-2A3.5,3.5,0,0,0,28.31,20.39Z"/><circle class="cls-1" cx="35.18" cy="10.9" r="3.19"/><circle class="cls-1" cx="35.18" cy="65" r="3.19"/><path class="cls-2" d="M33.68,73.74a36,36,0,0,1-10.68-2c-.86-.32-1.7-.67-2.55-1L18,69.49c-.83-.4-1.56-1-2.34-1.43-.38-.25-.78-.49-1.15-.75l-1.08-.85A34.86,34.86,0,0,1,1.32,48.61,38.2,38.2,0,0,1,0,37.81,34.41,34.41,0,0,1,2.09,27.19,33.28,33.28,0,0,1,15.21,10.75a.5.5,0,0,1,.6.81h0A34.84,34.84,0,0,0,4.88,28.12,32.45,32.45,0,0,0,3.5,37.86,35.58,35.58,0,0,0,5,47.52,33.15,33.15,0,0,0,15.9,63.34a33.68,33.68,0,0,0,18,7.12h0a1.64,1.64,0,0,1-.21,3.28Z"/><path class="cls-2" d="M38.36,3.11A34.34,34.34,0,0,1,49.21,5.59a32.31,32.31,0,0,1,9.52,5.88,34.54,34.54,0,0,1,11.15,19,35.79,35.79,0,0,1,.59,11.07,34.88,34.88,0,0,1-2.94,10.64,34.39,34.39,0,0,1-6.09,9.09A34.86,34.86,0,0,1,52.9,68a.5.5,0,1,1-.52-.86h0a35.28,35.28,0,0,0,7.83-6.95,34.49,34.49,0,0,0,5.3-8.86,33.18,33.18,0,0,0,1.41-20.13A30.79,30.79,0,0,0,63,21.84a33.62,33.62,0,0,0-6.56-7.66A34.2,34.2,0,0,0,38.11,6.27h0a1.59,1.59,0,0,1,.29-3.16Z"/></g></g></g></g></svg>