<svg xmlns="http://www.w3.org/2000/svg" viewBox="0 0 235.11 41.57"><defs><style>.cls-1{fill:#fff;}</style></defs><title>boomwhite</title><g id="Layer_2" data-name="Layer 2"><g id="Layer_1-2" data-name="Layer 1"><path class="cls-1" d="M46.82,15.37a3.53,3.53,0,0,1,3.53-3.54h3a5.51,5.51,0,0,1,5.52,5.52,4.85,4.85,0,0,1-1.61,3.93,5.13,5.13,0,0,1,1.9,4.33,5.8,5.8,0,0,1-5.81,5.8h-3a3.55,3.55,0,0,1-3.53-3.54Zm3.07,4.43h3.45a2.41,2.41,0,0,0,2.45-2.44,2.46,2.46,0,0,0-2.45-2.46h-3A.49.49,0,0,0,50,15a.49.49,0,0,0-.12.34Zm3.45,8.54a2.7,2.7,0,0,0,2.73-2.73,2.72,2.72,0,0,0-.79-1.95,2.67,2.67,0,0,0-1.94-.8H49.89v5a.43.43,0,0,0,.46.47Z"/><path class="cls-1" d="M68.12,17a7.24,7.24,0,0,1,7.22,7.22A7.22,7.22,0,1,1,63,19.09,7,7,0,0,1,68.12,17Zm0,3.1a4.17,4.17,0,0,0-2.94,7.09,4.16,4.16,0,0,0,5.88-5.88A4,4,0,0,0,68.12,20.07Z"/><path class="cls-1" d="M84.31,17a7.24,7.24,0,0,1,7.22,7.22,7.24,7.24,0,0,1-7.22,7.22,7.22,7.22,0,0,1-7.21-7.22A7.22,7.22,0,0,1,84.31,17Zm0,3.1a4.17,4.17,0,0,0-2.94,7.09,4.16,4.16,0,0,0,5.88-5.88A4,4,0,0,0,84.31,20.07Z"/><path class="cls-1" d="M96.73,29.89A1.42,1.42,0,0,1,96.28,31a1.44,1.44,0,0,1-1.06.45h0A1.47,1.47,0,0,1,94.11,31a1.42,1.42,0,0,1-.45-1.07V23a6,6,0,0,1,6-6,5.31,5.31,0,0,1,4.5,2,5.27,5.27,0,0,1,4.48-2,6,6,0,0,1,6,6v6.89a1.43,1.43,0,0,1-.44,1.07,1.47,1.47,0,0,1-1.07.45h0A1.4,1.4,0,0,1,112.1,31a1.43,1.43,0,0,1-.46-1.07V23a2.81,2.81,0,0,0-.86-2.09,3,3,0,0,0-4.2,0,2.81,2.81,0,0,0-.86,2.09v6.89a1.54,1.54,0,0,1-1.52,1.52h0A1.47,1.47,0,0,1,103.1,31a1.42,1.42,0,0,1-.45-1.07V23a3,3,0,0,0-5.92,0Z"/><path class="cls-1" d="M130.61,21.18a1.5,1.5,0,0,1,.15.64,1.58,1.58,0,0,1-.91,1.38l-4.61,2.08-4.16,1.89a3.55,3.55,0,0,0,3,1.21,4.15,4.15,0,0,0,3.92-2.8,1.43,1.43,0,0,1,1.46-1A1.56,1.56,0,0,1,131,26a1.71,1.71,0,0,1-.1.54,6.9,6.9,0,0,1-2.6,3.46,7.22,7.22,0,0,1-11.43-5.85,7.21,7.21,0,0,1,11.16-6A7.11,7.11,0,0,1,130.61,21.18Zm-6.56-1.11a4.13,4.13,0,0,0-4.15,4.16v.09l7-3.15A3.51,3.51,0,0,0,124.05,20.07Z"/><path class="cls-1" d="M139.45,17a1.47,1.47,0,0,1,1.08.45A1.5,1.5,0,0,1,141,18.5v0a1.46,1.46,0,0,1-.44,1.06,1.47,1.47,0,0,1-1.08.45h-.71a2.34,2.34,0,0,0-1.74.72,2.42,2.42,0,0,0-.72,1.74v7.39a1.42,1.42,0,0,1-.45,1.07,1.44,1.44,0,0,1-1.06.45h0a1.47,1.47,0,0,1-1.07-.45,1.42,1.42,0,0,1-.45-1.07V22.5a5.48,5.48,0,0,1,1.62-3.91A5.32,5.32,0,0,1,138.74,17Z"/><path class="cls-1" d="M154.67,19.09a7,7,0,0,1,2.11,5.1v5.7a1.42,1.42,0,0,1-.45,1.07,1.44,1.44,0,0,1-1.06.45h0a1.48,1.48,0,0,1-1.07-.45,1.42,1.42,0,0,1-.45-1.07,5.38,5.38,0,0,1-4.14,1.52,7.24,7.24,0,0,1-7.22-7.22A7.24,7.24,0,0,1,149.57,17,7,7,0,0,1,154.67,19.09Zm-8,2.17a4,4,0,0,0-1.2,2.93,4.1,4.1,0,0,0,4.15,4.15,4,4,0,0,0,2.93-1.2,4,4,0,0,0,1.21-2.95,4.15,4.15,0,0,0-7.09-2.93Z"/><path class="cls-1" d="M162.36,29.89a1.42,1.42,0,0,1-.45,1.07,1.47,1.47,0,0,1-1.07.45h0a1.47,1.47,0,0,1-1.07-.45,1.42,1.42,0,0,1-.45-1.07V23a6.06,6.06,0,0,1,12.12,0v6.85a1.54,1.54,0,0,1-1.52,1.52h0a1.47,1.47,0,0,1-1.08-.45,1.42,1.42,0,0,1-.45-1.07V23a2.89,2.89,0,0,0-.87-2.12,3,3,0,0,0-4.24,0,2.89,2.89,0,0,0-.87,2.12Z"/><path class="cls-1" d="M180.76,33.49a4,4,0,0,0,2.83-1.23,3.89,3.89,0,0,0,1.31-2.92,4.71,4.71,0,0,1-4.14,2.07,7.24,7.24,0,0,1-7.22-7.22,7.22,7.22,0,0,1,14.43,0v5.18a6.89,6.89,0,0,1-2.26,5.12,7.36,7.36,0,0,1-11.28-1.18,1.45,1.45,0,0,1-.25-.81,1.51,1.51,0,0,1,.09-.5,1.43,1.43,0,0,1,.92-.95h0a1.66,1.66,0,0,1,.6-.11,1.39,1.39,0,0,1,1.18.7A4.19,4.19,0,0,0,180.76,33.49Zm4.14-9.38a3.93,3.93,0,0,0-1.24-2.88,4.14,4.14,0,0,0-7,3,4.1,4.1,0,0,0,4.15,4.15,4,4,0,0,0,2.93-1.2,4,4,0,0,0,1.21-2.95Z"/><path class="cls-1" d="M193.68,25.14v4.75a1.39,1.39,0,0,1-.46,1.07,1.44,1.44,0,0,1-1.06.45h0a1.44,1.44,0,0,1-1.06-.45,1.42,1.42,0,0,1-.45-1.07V18.49a6.65,6.65,0,1,1,13.3,0,6.66,6.66,0,0,1-6.65,6.65Zm0-3.07h3.58a3.57,3.57,0,0,0,3.58-3.58,3.58,3.58,0,1,0-7.16,0Z"/><path class="cls-1" d="M218.37,19.09a7,7,0,0,1,2.11,5.1v5.7A1.42,1.42,0,0,1,220,31a1.46,1.46,0,0,1-1.06.45h0a1.47,1.47,0,0,1-1.07-.45,1.42,1.42,0,0,1-.45-1.07,5.39,5.39,0,0,1-4.15,1.52,7.22,7.22,0,0,1-7.21-7.22,7.21,7.21,0,0,1,12.32-5.1Zm-8.05,2.17a4,4,0,0,0-1.2,2.93,4.1,4.1,0,0,0,4.14,4.15,4.15,4.15,0,0,0,2.94-7.08,4.15,4.15,0,0,0-5.88,0Z"/><path class="cls-1" d="M226.06,25.08a3,3,0,1,0,6,0V18.5A1.54,1.54,0,0,1,233.56,17h0a1.38,1.38,0,0,1,1.06.45,1.44,1.44,0,0,1,.46,1.08v12a6.24,6.24,0,0,1-6.06,6.06,6.51,6.51,0,0,1-3.42-.93,6,6,0,0,1-2.28-2.41,1.45,1.45,0,0,1,0-1.26,1.39,1.39,0,0,1,.88-.86l0,0a1.58,1.58,0,0,1,1.08,0,1.5,1.5,0,0,1,.77.72A3.06,3.06,0,0,0,227.29,33a3.4,3.4,0,0,0,1.76.48,2.84,2.84,0,0,0,2.08-.88A2.89,2.89,0,0,0,232,30.5v-.11a4.94,4.94,0,0,1-3,.74A6.08,6.08,0,0,1,223,25.08V18.5a1.47,1.47,0,0,1,.45-1.08A1.44,1.44,0,0,1,224.5,17h0a1.54,1.54,0,0,1,1.52,1.53Z"/><path class="cls-1" d="M23.12,30.51s-2-2-5-4.86S14,21.51,13.26,19.83s-1.84-4,.31-9.23S18.82,1.76,16.84.19,10,7.31,10,7.31,5,14.48,7.56,20.73s11,10.81,11,10.81,4.09,2.45,4.72,1.11A1.89,1.89,0,0,0,23.12,30.51Z"/><path class="cls-1" d="M15.32,11.06s2,2,5,4.86,4.12,4.14,4.84,5.82,1.84,4-.31,9.23-5.25,8.84-3.26,10.41,6.85-7.12,6.85-7.12,5-7.17,2.43-13.42S19.91,10,19.91,10s-4.09-2.45-4.72-1.11A1.91,1.91,0,0,0,15.32,11.06Z"/><circle class="cls-1" cx="19.04" cy="5.92" r="1.73"/><circle class="cls-1" cx="19.04" cy="35.2" r="1.73"/><path class="cls-1" d="M18.23,39.93a19.48,19.48,0,0,1-5.79-1.07l-1.37-.55-1.32-.68c-.45-.21-.84-.52-1.27-.77-.2-.14-.42-.26-.62-.41L7.28,36A19,19,0,0,1,.71,26.33,20.24,20.24,0,0,1,0,20.49a18.71,18.71,0,0,1,1.13-5.75,18,18,0,0,1,7.09-8.9.28.28,0,0,1,.38.08.28.28,0,0,1-.06.36h0a18.8,18.8,0,0,0-5.9,9,17.49,17.49,0,0,0-.75,5.27,19.22,19.22,0,0,0,.81,5.23,17.89,17.89,0,0,0,5.91,8.57,18.27,18.27,0,0,0,9.71,3.85h0a.89.89,0,0,1-.11,1.77Z"/><path class="cls-1" d="M20.76,1.7a18.43,18.43,0,0,1,5.89,1.35,17.5,17.5,0,0,1,5.16,3.18,18.68,18.68,0,0,1,6,10.29,19.44,19.44,0,0,1,.32,6,18.67,18.67,0,0,1-4.89,10.68,19,19,0,0,1-4.64,3.59.27.27,0,0,1-.37-.11.26.26,0,0,1,.09-.35h0a19.43,19.43,0,0,0,4.24-3.74,18.87,18.87,0,0,0,2.87-4.8,18,18,0,0,0,.76-10.89,16.47,16.47,0,0,0-2.14-5.05A18,18,0,0,0,20.62,3.42h0a.85.85,0,0,1-.75-1A.87.87,0,0,1,20.76,1.7Z"/></g></g></svg>