<svg xmlns="http://www.w3.org/2000/svg" viewBox="0 0 185.15 185.15"><defs><style>.cls-1{fill:#6e2b8b;}.cls-2{fill:#fff;}</style></defs><title>mugshot</title><g id="Layer_2" data-name="Layer 2"><g id="Layer_1-2" data-name="Layer 1"><circle class="cls-1" cx="92.57" cy="92.57" r="92.57"/><path class="cls-2" d="M20.82,92.57a71.75,71.75,0,1,1,129.89,42,100.15,100.15,0,0,1,10.88,9.15,85.93,85.93,0,1,0-138,0,101.28,101.28,0,0,1,10.87-9.16A71.32,71.32,0,0,1,20.82,92.57Z"/><path class="cls-2" d="M92.57,164.32a71.45,71.45,0,0,1-48.68-19.1,85.5,85.5,0,0,0-11,9.13,85.71,85.71,0,0,0,119.27,0,86.19,86.19,0,0,0-11-9.13A71.47,71.47,0,0,1,92.57,164.32Z"/><path class="cls-2" d="M122.37,66.67a29.8,29.8,0,1,0-29.8,29.8A29.83,29.83,0,0,0,122.37,66.67Zm-48.26,0A18.46,18.46,0,1,1,92.57,85.13,18.48,18.48,0,0,1,74.11,66.67Z"/><path class="cls-2" d="M141.26,145.22a72.08,72.08,0,0,0,9.45-10.67,98.9,98.9,0,0,0-116.28,0,72.29,72.29,0,0,0,9.46,10.68,84.66,84.66,0,0,1,97.37,0Z"/><path class="cls-2" d="M141.26,145.22a86.19,86.19,0,0,1,11,9.13,87.92,87.92,0,0,0,9.38-10.65,100.15,100.15,0,0,0-10.88-9.15A72.08,72.08,0,0,1,141.26,145.22Z"/><path class="cls-2" d="M32.94,154.35a85.5,85.5,0,0,1,11-9.13,72.29,72.29,0,0,1-9.46-10.68,101.28,101.28,0,0,0-10.87,9.16A87.92,87.92,0,0,0,32.94,154.35Z"/></g></g></svg>