<svg xmlns="http://www.w3.org/2000/svg" viewBox="0 0 171.85 171.85"><defs><style>.cls-1{fill:#6e2b8b;}</style></defs><title>musg</title><g id="Layer_2" data-name="Layer 2"><g id="Layer_1-2" data-name="Layer 1"><path class="cls-1" d="M14.17,85.92a71.75,71.75,0,1,1,129.89,42,99.18,99.18,0,0,1,10.87,9.16A85.91,85.91,0,1,0,0,85.92a85.47,85.47,0,0,0,16.91,51.13,100.13,100.13,0,0,1,10.87-9.16A71.32,71.32,0,0,1,14.17,85.92Z"/><path class="cls-1" d="M85.92,157.67a71.45,71.45,0,0,1-48.68-19.1,85.5,85.5,0,0,0-11,9.13,85.71,85.71,0,0,0,119.27,0,85.59,85.59,0,0,0-11-9.13A71.43,71.43,0,0,1,85.92,157.67Z"/><path class="cls-1" d="M115.72,60a29.8,29.8,0,1,0-29.8,29.8A29.84,29.84,0,0,0,115.72,60ZM67.46,60A18.46,18.46,0,1,1,85.92,78.48,18.48,18.48,0,0,1,67.46,60Z"/><path class="cls-1" d="M134.6,138.57a71.17,71.17,0,0,0,9.46-10.68,98.92,98.92,0,0,0-116.28,0,72.29,72.29,0,0,0,9.46,10.68,84.64,84.64,0,0,1,97.36,0Z"/><path class="cls-1" d="M134.6,138.57a85.59,85.59,0,0,1,11,9.13,87,87,0,0,0,9.37-10.65,99.18,99.18,0,0,0-10.87-9.16A71.17,71.17,0,0,1,134.6,138.57Z"/><path class="cls-1" d="M26.29,147.7a85.5,85.5,0,0,1,11-9.13,72.29,72.29,0,0,1-9.46-10.68,100.13,100.13,0,0,0-10.87,9.16A87.07,87.07,0,0,0,26.29,147.7Z"/></g></g></svg>