<svg id="Icon_material-notifications-none" data-name="Icon material-notifications-none" xmlns="http://www.w3.org/2000/svg" width="14.769" height="18" viewBox="0 0 14.769 18">
  <path id="Icon_material-notifications-none-2" data-name="Icon material-notifications-none" d="M13.385,21.75A1.852,1.852,0,0,0,15.231,19.9H11.538A1.852,1.852,0,0,0,13.385,21.75Zm5.538-5.538V11.6c0-2.834-1.5-5.206-4.154-5.834V5.135a1.385,1.385,0,1,0-2.769,0v.628C9.36,6.39,7.846,8.753,7.846,11.6v4.615L6,18.058v.923H20.769v-.923Zm-1.846.923H9.692V11.6c0-2.289,1.394-4.154,3.692-4.154s3.692,1.865,3.692,4.154Z" transform="translate(-6 -3.75)" fill="#710193"/>
</svg>
