<svg xmlns="http://www.w3.org/2000/svg" viewBox="0 0 223.41 223.41"><defs><style>.cls-1{fill:#6e2b8b;}</style></defs><title>receive_1</title><g id="Layer_2" data-name="Layer 2"><g id="Layer_1-2" data-name="Layer 1"><path class="cls-1" d="M111.7,223.41a111.71,111.71,0,1,1,111.71-111.7A111.83,111.83,0,0,1,111.7,223.41Zm0-203.57a91.87,91.87,0,1,0,91.87,91.87A92,92,0,0,0,111.7,19.84Z"/><path class="cls-1" d="M177.47,91a10.51,10.51,0,0,0-14.87,0l-40.38,40.38V66.62a10.52,10.52,0,1,0-21,0v64.79L60.81,91A10.51,10.51,0,0,0,45.94,105.9l58.33,58.33a10.51,10.51,0,0,0,14.87,0l58.33-58.33A10.53,10.53,0,0,0,177.47,91Z"/></g></g></svg>