<svg xmlns="http://www.w3.org/2000/svg" viewBox="0 0 223.41 223.41"><defs><style>.cls-1{fill:#6e2b8b;}</style></defs><title>send</title><g id="Layer_2" data-name="Layer 2"><g id="Layer_1-2" data-name="Layer 1"><path class="cls-1" d="M111.71,0A111.71,111.71,0,1,1,0,111.71,111.83,111.83,0,0,1,111.71,0Zm0,203.57a91.87,91.87,0,1,0-91.87-91.86A92,92,0,0,0,111.71,203.57Z"/><path class="cls-1" d="M45.94,132.38a10.51,10.51,0,0,0,14.87,0L101.19,92v64.79a10.52,10.52,0,1,0,21,0V92l40.38,40.38a10.51,10.51,0,0,0,14.87-14.87L119.14,59.18a10.51,10.51,0,0,0-14.87,0L45.94,117.51A10.53,10.53,0,0,0,45.94,132.38Z"/></g></g></svg>