<svg id="Icon_ionic-ios-swap" data-name="Icon ionic-ios-swap" xmlns="http://www.w3.org/2000/svg" width="22.084" height="14.993" viewBox="0 0 22.084 14.993">
  <path id="Path_41" data-name="Path 41" d="M23.336,15.316a.64.64,0,0,1,0-.907l2.328-2.362h-11.1a.641.641,0,0,1,0-1.282H25.654L23.326,8.4a.642.642,0,1,1,.912-.9l3.4,3.452h0a.627.627,0,0,1,.133.2.612.612,0,0,1,.049.247.643.643,0,0,1-.182.449l-3.4,3.452A.634.634,0,0,1,23.336,15.316Z" transform="translate(-5.74 -7.31)" fill="#710193"/>
  <path id="Path_42" data-name="Path 42" d="M6.745,25.019a.64.64,0,0,0,0-.907L4.427,21.749H15.518a.641.641,0,0,0,0-1.282H4.427L6.755,18.1a.642.642,0,0,0-.912-.9l-3.4,3.452h0a.627.627,0,0,0-.133.2.612.612,0,0,0-.049.247.643.643,0,0,0,.182.449L5.842,25A.634.634,0,0,0,6.745,25.019Z" transform="translate(-2.257 -10.207)" fill="#710193"/>
</svg>
